<svg xmlns="http://www.w3.org/2000/svg" viewBox="0 0 1200 750">
  <defs>
    <linearGradient id="g" x1="1" y1="0" x2="0" y2="1">
      <stop offset="0" stop-color="#0f766e"/>
      <stop offset="1" stop-color="#042f2e"/>
    </linearGradient>
  </defs>
  <rect width="1200" height="750" fill="url(#g)"/>
  <rect x="120" y="90" width="960" height="570" rx="20" fill="#ffffff" opacity="0.08"/>
  <rect x="170" y="150" width="270" height="200" rx="16" fill="#ffffff" opacity="0.12"/>
  <rect x="470" y="150" width="270" height="200" rx="16" fill="#ffffff" opacity="0.12"/>
  <rect x="770" y="150" width="270" height="200" rx="16" fill="#ffffff" opacity="0.12"/>
  <rect x="170" y="400" width="870" height="210" rx="16" fill="#ffffff" opacity="0.1"/>
  <rect x="210" y="530" width="60" height="50" rx="8" fill="#5eead4" opacity="0.7"/>
  <rect x="310" y="490" width="60" height="90" rx="8" fill="#5eead4" opacity="0.7"/>
  <rect x="410" y="450" width="60" height="130" rx="8" fill="#5eead4" opacity="0.7"/>
  <rect x="510" y="500" width="60" height="80" rx="8" fill="#5eead4" opacity="0.7"/>
  <rect x="610" y="430" width="60" height="150" rx="8" fill="#5eead4" opacity="0.7"/>
  <rect x="710" y="470" width="60" height="110" rx="8" fill="#5eead4" opacity="0.7"/>
  <rect x="810" y="410" width="60" height="170" rx="8" fill="#5eead4" opacity="0.7"/>
</svg>
